<svg id="Camada_1" data-name="Camada 1" xmlns="http://www.w3.org/2000/svg" xmlns:xlink="http://www.w3.org/1999/xlink" width="1037.91565" height="1037.91565" viewBox="0 0 1037.91565 1037.91565">
  <defs>
    <style>
      .cls-1 {
        fill: none;
      }

      .cls-2 {
        clip-path: url(#clip-path);
      }

      .cls-3 {
        fill: #ffeae9;
      }

      .cls-4 {
        fill: #b77155;
      }

      .cls-5 {
        fill: #5ddba5;
      }

      .cls-6 {
        fill: #3c3c3b;
      }

      .cls-7 {
        fill: #333;
      }

      .cls-8 {
        fill: #ffc9a4;
      }

      .cls-9 {
        fill: #b22241;
      }

      .cls-10 {
        fill: #ceddea;
      }

      .cls-11 {
        fill: #991437;
      }

      .cls-12 {
        fill: #d1d3d4;
      }

      .cls-13 {
        fill: #bcbec0;
      }

      .cls-14 {
        fill: #fff;
      }

      .cls-15, .cls-19 {
        fill: #d88852;
      }

      .cls-16 {
        fill: #cc2752;
      }

      .cls-17 {
        fill: #97b7ce;
      }

      .cls-18 {
        fill: #2e6042;
        opacity: 0.36;
      }

      .cls-18, .cls-19 {
        isolation: isolate;
      }

      .cls-19 {
        opacity: 0.23;
      }

      .cls-20 {
        fill: #ff7752;
      }

      .cls-21 {
        fill: #f7ce92;
      }

      .cls-22 {
        fill: #f45f00;
      }
    </style>
    <clipPath id="clip-path" transform="translate(-1.56171)">
      <circle class="cls-1" cx="520.51953" cy="518.95782" r="518.95782"/>
    </clipPath>
  </defs>
  <g class="cls-2">
    <circle class="cls-3" cx="518.95782" cy="518.95782" r="518.95782"/>
    <g>
      <path class="cls-4" d="M661.47339,278.71072c29.20343,29.93692,28.29773,75.38361,27.30731,125.08551-.72949,36.61041-7.88263,48.074-10.57056,51.97214-28.20642,40.90606-102.432,28.52688-109.22955,27.30731L457.98929,480.433c13.72339-12.54636,32.89975-33.87988,40.52057-64.30444,15.08209-60.21219-30.16355-95.87628-13.21326-129.48987C506.5686,244.45494,613.61658,229.65208,661.47339,278.71072Z" transform="translate(-1.56171)"/>
      <path class="cls-5" d="M476.99252,510.4768s29.45664,60.11731,28.70624,84.64c-.75067,24.52289-41.87918,139.202-41.164,160.27173.71265,21.06848-35.58951,12.50091-47.60269,0-12.01059-12.502,19.07083-131.45319,27.44015-164.896C463.48086,514.14215,476.99252,510.4768,476.99252,510.4768Z" transform="translate(-1.56171)"/>
      <g>
        <path class="cls-6" d="M478.66088,1034.95312h210.443c7.91584-49.97521,18.39045-69.64093,14.80622-113.25274-3.67176-44.679-39.44062-125.12317-39.44062-125.12317-38.76086,9.52032-161.16632,4.75964-161.16632,4.75964S469.13378,870.598,472.45678,949.58276C473.84826,982.66028,476.11443,1011.10742,478.66088,1034.95312Z" transform="translate(-1.56171)"/>
        <path class="cls-7" d="M478.66094,1034.95312h9.78992c-15.69171-122.63275,12.37091-186.01361,12.37091-186.01361l15.23-47.192c-7.93976-.22382-12.74854-.41077-12.74854-.41077s-34.16943,69.26111-30.84643,148.24591C473.84832,982.66022,476.11449,1011.10736,478.66094,1034.95312Z" transform="translate(-1.56171)"/>
        <path class="cls-7" d="M485.17743,850.85229c8.52847-30.05182,18.12585-49.51544,18.12585-49.51544s122.4054,4.76068,161.16626-4.75964c0,0,6.58777,14.82562,14.39606,35.26245L672.629,839.006s-70.33753,37.54547-127.17615,16.05371c-46.08139-17.42713-15.12134,21.07983,36.56738,21.07983C646.91217,876.13952,498.68155,908.10022,485.17743,850.85229Z" transform="translate(-1.56171)"/>
        <path class="cls-7" d="M684.51323,954.40662c-5.72607,31.9887-13.5415,55.1156-17.98132,80.5465H689.103c7.91668-49.97521,18.39129-69.64093,14.80707-113.25274-3.67176-44.679-39.44062-125.12317-39.44062-125.12317-1.92541.47247-4.11139.901-6.426,1.30646,0,0,3.53259,19.38031,8.52844,33.34692C673.73333,851.2467,694.343,899.50616,684.51323,954.40662Z" transform="translate(-1.56171)"/>
      </g>
      <g>
        <path class="cls-8" d="M618.35028,421.26367s-10.61072,40.11-2.17334,61.16351c8.43762,21.05319-36.911,40.8757-47.37268,34.72009s-20.36462-24.54049-16.9762-33.60586c3.3913-9.06537,9.02887-33.70056,9.81476-55.78726C561.64294,427.75412,606.8324,410.308,618.35028,421.26367Z" transform="translate(-1.56171)"/>
        <path class="cls-9" d="M645.34045,496.73217l-4.61151-6.28714q-11.88418-2.61575-23.76849-5.23141c-1.996,2.20917-22.50879,24.31665-44.262,19.14368-5.87091-1.39612-20.57092-6.85743-21.5343-16.01392a9.709,9.709,0,0,1,.29865-3.5325q-8.78669,1.016-17.57337,2.032l-13.413,7.8588-9.6528,109.523,56.99518,72.79236,83.364-78.69025Z" transform="translate(-1.56171)"/>
        <path class="cls-5" d="M521.13852,489.52655a89.65254,89.65254,0,0,1,12.75088-2.6836S529.11609,557.9234,561.04413,626.424l6.49408,23.11139C518.45984,591.76934,519.27853,515.08288,521.13852,489.52655Z" transform="translate(-1.56171)"/>
        <path class="cls-5" d="M476.70718,510.47s21.00891-14.3772,44.43134-20.94348c-1.86,25.55636-2.67868,102.24285,46.39969,160.00885l5.28387,18.81439.5307,111.61279s4.46,37.24713-20.56439,44.57031c-34.0556,9.96509-62.34216-11.45453-62.34216-11.45453s9.46075-35.04638,11.92959-67.62c2.46884-32.57343,5.93827-64.87671-9.27884-84.70569-16.38983-21.36035-16.38983-41.66052-10.54754-81.34882C488.30841,540.28912,476.70718,510.47,476.70718,510.47Z" transform="translate(-1.56171)"/>
        <path class="cls-5" d="M564.11432,679.6073c-2.254-15.46112-5.08667-27.98719-4.83161-37.362,61.84455-45.15174,87.3642-124.56733,94.02778-149.21134a200.44984,200.44984,0,0,1,52.8208,21.58649l-20.759,124.4219c-18.36572,25.88477-34.05066,70.20356-27.87976,107.16651,5.33692,31.976,21.23407,70.84161,21.23407,70.84161s-34.32623,18.994-96.10742,13.01636c-13.71893-1.32666-25.80273-7.22583-26.67969-12.61841C553.69824,803.64752,570.79291,725.43493,564.11432,679.6073Z" transform="translate(-1.56171)"/>
        <path class="cls-5" d="M559.28278,642.2453a80.13172,80.13172,0,0,1,1.76141-15.82135c26.66931-22.86762,69.15735-88.72242,79.68475-135.97889,0,0,4.79352.65079,12.58167,2.58887C646.647,517.678,621.12732,597.09356,559.28278,642.2453Z" transform="translate(-1.56171)"/>
        <path class="cls-6" d="M564.11432,679.6073c6.67859,45.82757-10.41608,124.03918-8.17475,137.84118a7.80555,7.80555,0,0,0,2.91858,4.3086,24.42027,24.42027,0,0,1-3.189,1.64624c-8.41718-5.06519-.16925-42.8014,3.61352-76.21271,3.22187-28.456,5.78669-48.08167,1.73865-67.83228-7.533-36.7467-4.675-44.28589-2.17822-51.42584.79852-2.283,2.201-1.50854,2.201-1.50854a80.13248,80.13248,0,0,0-1.76142,15.82135C559.02765,651.62017,561.86029,664.14618,564.11432,679.6073Z" transform="translate(-1.56171)"/>
        <path class="cls-6" d="M562.81537,801.33685a3.10318,3.10318,0,1,0,3.10333-3.103h-.00006A3.10423,3.10423,0,0,0,562.81537,801.33685Z" transform="translate(-1.56171)"/>
        <path class="cls-6" d="M564.59692,652.63861A3.10318,3.10318,0,1,0,567.7,649.53534h-.00006A3.10411,3.10411,0,0,0,564.59692,652.63861Z" transform="translate(-1.56171)"/>
        <path class="cls-10" d="M567.69995,756.42785a3.10318,3.10318,0,1,0,3.10333-3.103h-.00006A3.104,3.104,0,0,0,567.69995,756.42785Z" transform="translate(-1.56171)"/>
        <path class="cls-10" d="M570.80328,704.48755a3.103,3.103,0,1,0,3.103-3.103A3.103,3.103,0,0,0,570.80328,704.48755Z" transform="translate(-1.56171)"/>
      </g>
      <g>
        <path class="cls-4" d="M459.818,269.33554a111.82249,111.82249,0,0,1,19.53726-22.18613c31.494-27.91267,54.49714-48.36862,82.5633-44.95393,12.57062,1.52943,25.73883,7.76625,39.01324,21.20187,0,0,12.06458-4.58957,28.07221-1.3017a61.20127,61.20127,0,0,1,21.23364,8.95314c23.90491,15.9711,29.57288,45.02689,31.70343,55.94931,1.76984,9.073,4.06647,20.84607.922,35.72095-5.68939,26.91437-24.68921,42.68457-31.41468,47.7706L632.6225,373.345s-24.65308-103.55686-51.4057-116.69319c-26.7555-13.13619-65.90784,18.9409-74.43885,44.30891C498.24429,326.32736,496.89,380.869,496.89,380.869L475.618,367.59a71.11606,71.11606,0,0,0-11.31317-29.23449c-19.1189-28.14508-16.73142-41.07782-13.22919-52.92984C452.63223,280.158,455.15,276.36612,459.818,269.33554Z" transform="translate(-1.56171)"/>
        <path class="cls-8" d="M489.213,357.27609s-10.14312-6.58646-17.489,5.32449c-4.72287,7.65772,3.58072,32.207,20.39,41.00586Z" transform="translate(-1.56171)"/>
        <path class="cls-8" d="M641.79,360.16824s15.37652-18.3696,24.24859-6.71533c8.87232,11.65558.31592,35.54657-14.267,42.75973-10.75739,5.32062-18.31788,2.77079-18.31788,2.77079Z" transform="translate(-1.56171)"/>
        <path class="cls-10" d="M484.07071,404.96466a6.11971,6.11971,0,1,0,4.882-7.14615h0A6.12,6.12,0,0,0,484.07071,404.96466Z" transform="translate(-1.56171)"/>
        <path class="cls-10" d="M631.17181,403.35623a6.11992,6.11992,0,1,0,4.88251-7.14621l-.00024.00006A6.12014,6.12014,0,0,0,631.17181,403.35623Z" transform="translate(-1.56171)"/>
        <path class="cls-8" d="M650.46527,345.87722s-10.46173,57.987-25.80023,74.75846c-15.3385,16.77124-57.11908,45.11859-73.76654,44.20517-16.64508-.91342-51.99216-31.482-59.50211-52.18662-11.8237-32.59643.23773-39.2409-6.82028-76.68649-3.90674-20.72742-.97784-101.64642,81.06946-100.33888C647.69318,236.93792,654.53375,326.86172,650.46527,345.87722Z" transform="translate(-1.56171)"/>
        <path class="cls-4" d="M609.43268,271.398s16.17737-7.50644,28.18792,22.32418c12.00806,29.83063,8.301,73.13242,8.301,73.13242S675.52228,329.696,667.426,294.4703c-8.096-35.22581-39.49353-51.78348-58.60736-59.88882-19.11145-8.10518-56.11358-16.247-81.88574-4.77214-25.76981,11.47629-52.11829,59.28471-53.78879,75.80464-1.67032,16.52133,12.23563,35.04379,12.23563,35.04379a49.172,49.172,0,0,1-.50537-14.93008c3.64844-29.88843,35.29309-50.54718,58.903-57.92192C573.50879,258.51893,599.63428,267.44442,609.43268,271.398Z" transform="translate(-1.56171)"/>
      </g>
      <path class="cls-5" d="M706.13135,514.62048s-29.45667,60.11731-28.70624,84.64c.75067,24.52289,41.87915,139.202,41.164,160.27173-.71265,21.06842,35.58954,12.50092,47.60272,0,12.01056-12.502-19.0708-131.45318-27.44012-164.896C719.64307,518.28579,706.13135,514.62048,706.13135,514.62048Z" transform="translate(-1.56171)"/>
      <path class="cls-3" d="M620.92981,783.35437s-18.97125,3.662-23.23987,1.0451c-7.81842-4.79065-4.33978-31.55566,1.48309-33.62646,5.82557-2.06861,20.08789-1.74042,20.08789-1.74042S614.63287,771.16406,620.92981,783.35437Z" transform="translate(-1.56171)"/>
      <ellipse class="cls-6" cx="528.19627" cy="346.09109" rx="4.57397" ry="9.3685"/>
      <ellipse class="cls-6" cx="573.92887" cy="347.95386" rx="4.57397" ry="9.3685"/>
      <path class="cls-6" d="M533.15839,415.18689a94.05222,94.05222,0,0,0,14.80828,1.63189,95.28364,95.28364,0,0,0,30.24079-4.00677c1.67169,18.80063-12.879,32.17489-24.6789,31.16943C543.205,443.10174,532.52331,431.005,533.15839,415.18689Z" transform="translate(-1.56171)"/>
      <path class="cls-6" d="M541.2688,386.60263a9.02257,9.02257,0,0,1,2.35895-7.65665,9.55906,9.55906,0,0,1,8.45153-2.36984,13.6146,13.6146,0,0,1,7.27686,3.84332,13.18688,13.18688,0,0,1,3.71454,6.84381,57.24016,57.24016,0,0,0-5.98187-3.87616,19.28816,19.28816,0,0,0-5.80878-2.1304,8.27778,8.27778,0,0,0-5.32117.59067C544.2829,382.69546,542.77771,384.496,541.2688,386.60263Z" transform="translate(-1.56171)"/>
      <path class="cls-6" d="M563.396,321.2c.49273,1.03271,7.77319-3.88864,17.17706-2.6427,6.939.91934,12.34967,4.841,16.1864,8.58862-.43146-.87433-6.91815-13.5607-18.16827-13.8739C570.00378,313.03289,562.88129,320.1213,563.396,321.2Z" transform="translate(-1.56171)"/>
      <path class="cls-6" d="M545.49512,317.46273c-.49274,1.03275-7.7732-3.88864-17.17707-2.6427-6.939.91935-12.34967,4.841-16.18637,8.58863.43149-.87433,6.91815-13.5607,18.16831-13.8739C538.88727,309.29562,546.00983,316.384,545.49512,317.46273Z" transform="translate(-1.56171)"/>
      <path class="cls-11" d="M573.56073,432.30154a26.93709,26.93709,0,0,0-30.54242,6.90259,17.51288,17.51288,0,0,0,10.14252,5.7019C560.88464,446.04272,569.22168,441.05713,573.56073,432.30154Z" transform="translate(-1.56171)"/>
      <path class="cls-6" d="M575.293,343.4393a19.61387,19.61387,0,0,0,13.874-.55057,23.54261,23.54261,0,0,1-12.9931,4.955" transform="translate(-1.56171)"/>
      <path class="cls-6" d="M528.82648,340.96179a19.61382,19.61382,0,0,1-13.874-.55057,23.54269,23.54269,0,0,0,12.99308,4.955" transform="translate(-1.56171)"/>
      <path class="cls-8" d="M600.08356,779.91705c-6.0116-5.0921-8.21827-10.58215-15.35059-32.14038-6.438-19.46-8.84827-27.502-5.712-29.3468,5.21038-3.06482,5.84088,7.79144,11.71368,18.65832,5.87439,10.86707,7.76074,2.52448,4.199-12.61181-3.55951-15.13617-14.80822-19.46351-15.8999-24.51557-1.09387-5.05224,16.84729-.17621,22.83478,15.81275,0,0-.72839-10.20826-15.03674-18.41883-11.08033-6.361-9.85541-13.02514,3.20861-6.97021A35.37486,35.37486,0,0,1,601.943,698.766c3.25519,3.63812,6.64807,9.20685,10.924,33.69787.88538,5.07111,1.87421,11.33844,2.77509,18.5691,10.46881,5.49987,16.97717,14.90625,16.37353,24.25933a20.267,20.267,0,0,1-3.30334,9.68976,29.48272,29.48272,0,0,1-18.49854.66065A29.12694,29.12694,0,0,1,600.08356,779.91705Z" transform="translate(-1.56171)"/>
      <path class="cls-8" d="M569.69293,781.23834c6.49909-3.20612,6.69562-7.35755,19.22614-33.68933.0003-.00025,10.81512-23.48944,7.75-28.311a2.67794,2.67794,0,0,0-1.10108-.94275c-6.34137-3.184-7.00464,7.67078-14.01916,18.41993-7.01654,10.7492-9.37921,2.35522-5.204-12.71943,4.1723-15.07458,17.76092-19.15747,19.0365-24.19116,1.27844-5.03381-20.413-.55-27.51911,15.32453,0,0,.788-10.2038,18.04737-18.10657,13.36541-6.12256,11.81964-12.82153-3.952-7.04932-17.527,6.41443-24.30377,16.22431-27.2663,41.62152-2.96515,25.39954-3.93719,50.98352-3.93719,50.98352C555.51813,783.72125,562.83874,784.61956,569.69293,781.23834Z" transform="translate(-1.56171)"/>
      <path class="cls-5" d="M414.71,775.25592c14.34863,2.57513,29.46613,4.81457,45.30881,6.572a684.57762,684.57762,0,0,0,103.28787,3.5946,35.4663,35.4663,0,0,1-11.23132-19.81988,34.383,34.383,0,0,1,.66064-14.975c-12.64673-4.1712-85.64361-27.93732-119.79614-24.02447-5.24988.6015-11.23166,2.0368-15.76309,6.61865C405.28448,745.24627,412.77072,769.42736,414.71,775.25592Z" transform="translate(-1.56171)"/>
      <path class="cls-5" d="M767.67865,774.69439q-21.93091,3.65919-45.30884,6.572c-35.89892,4.429-69.94671,6.79023-101.80585,7.67969a69.48393,69.48393,0,0,0-4.922-37.91308c13.45489-3.95569,99.45593-28.95288,133.80682-24.99134,6.28186.72443,11.704,2.51447,15.76312,6.61866C777.10419,744.68475,769.61792,768.86584,767.67865,774.69439Z" transform="translate(-1.56171)"/>
      <g>
        <path class="cls-11" d="M354.20856,509.993s15.90335,19.16684,27.75348,82.02853c10.47537,55.57507,49.07708,145.93128,37.4606,163.697-11.61753,17.76435-37.27121,13.89331-37.27121,13.89331L330.06476,632.86963S328.48166,513.62936,354.20856,509.993Z" transform="translate(-1.56171)"/>
        <g>
          <path class="cls-6" d="M181.53826,915.54285a263.73879,263.73879,0,0,1,47.86932,36.2406c7.08283,6.784,13.84064,13.74261,21.1355,20.20489,8.24426,5.72016,16.759,11.04224,25.36926,16.20813,12.21143,7.32648,24.18427,15.034,36.25531,22.58875,13.16712,8.24072,26.46051,16.29187,40.08509,23.72149,2.54773-23.8526,4.81518-52.30993,6.20721-85.40319,3.323-78.98243-30.84747-148.2436-30.84747-148.2436s-122.403,4.76087-161.165-4.76068c0,0-21.64087,48.67414-32.98425,91.32795C149.12237,897.37573,165.57207,906.08191,181.53826,915.54285Z" transform="translate(-1.56171)"/>
          <path class="cls-7" d="M343.08574,1029.39093q4.56044,2.60055,9.16694,5.11572c2.54773-23.85241,4.81524-52.30975,6.20727-85.40326,3.323-78.98242-30.84747-148.24359-30.84747-148.24359s-4.80878.18585-12.746.40943L330.095,848.46S357.36828,910.10114,343.08574,1029.39093Z" transform="translate(-1.56171)"/>
          <path class="cls-7" d="M345.74066,850.373c-8.52844-30.05054-18.12817-49.51312-18.12817-49.51312s-122.40306,4.76092-161.165-4.76068c0,0-6.58775,14.82562-14.39608,35.26349l6.23637,7.16528s70.33911,37.54651,127.17639,16.05243c46.08145-17.42584,15.12116,21.08215-36.56865,21.08215C184.00461,875.66253,332.23419,907.62353,345.74066,850.373Z" transform="translate(-1.56171)"/>
          <path class="cls-7" d="M146.03216,895.09027c4.34259-28.82526,13.89013-51.97247,18.31292-64.3363,4.99695-13.968,8.52979-33.34827,8.52979-33.34827-2.31488-.40442-4.50061-.8327-6.42737-1.30646,0,0-21.64087,48.67414-32.98425,91.32795C137.60424,890.058,141.80413,892.59625,146.03216,895.09027Z" transform="translate(-1.56171)"/>
        </g>
        <g>
          <path class="cls-11" d="M373.03928,736.23315s23.9681-37.34936,75.67575-76.886l24.34588,19.89319S426.32379,777.564,398.65878,780.22747C377.33649,782.28039,373.03928,736.23315,373.03928,736.23315Z" transform="translate(-1.56171)"/>
          <g>
            <path class="cls-12" d="M432.65375,510.4877l2.53637-34.794s46.47077-4.102,67.25473,2.74271c33.09024,10.89657,28.21927,33.08813,28.21927,33.08813Z" transform="translate(-1.56171)"/>
            <path class="cls-13" d="M428.21555,525.13955l2.77572-45.74881s90.16025-3.19659,96.35431,28.39743Z" transform="translate(-1.56171)"/>
            <path class="cls-14" d="M416.38336,613.2771l10.62207-127.904a331.85769,331.85769,0,0,1,56.19547,1.00684c39.43817,3.97507,51.666,12.3656,51.65585,17.49292q-12.953,61.23055-25.90634,122.46106a153.11333,153.11333,0,0,0-92.567-13.05682Z" transform="translate(-1.56171)"/>
          </g>
          <path class="cls-15" d="M453.79163,647.6181s-1.14838-12.73071.56228-20.31519c3.64023-16.146,6.72568-18.72717,1.56549-30.79083-5.15991-12.06494-5.29785-33.49487,1.7298-26.6,0,0,8.39181,36.55987,12.598,30.17291,8.62833-13.101-1.18512-51.64191,15.479-56.83106a1.29186,1.29186,0,0,1,1.727,1.35071c-.87177,6.60407-3.80921,30.0138-3.71839,44.79382.11878,19.38056,5.24222,3.89667,8.77609-11.53912,1.29639-5.663,2.8-13.25519,4.49674-20.25854,2.46261-10.16224,8.25677-18.10566,12.43649-17.77472a1.83349,1.83349,0,0,1,1.51114,2.55859,95.95074,95.95074,0,0,0-6.56888,24.9726c-2.32858,17.6632-1.66018,26.88147-4.88977,34.74932,0,0,6.68143-6.17346,12.70951-29.2116,2.696-10.30225,13.75772-15.34235,12.87225-11.17426-1.31165,6.1709-13.58,47.54346-18.97482,53.93012-16.25736,19.24652-24.23362,47.84539-24.23362,47.84539S451.616,678.42053,453.79163,647.6181Z" transform="translate(-1.56171)"/>
          <path class="cls-6" d="M458.219,603.46362c1.42655,6.94769-1.04358,11.32562-3.86508,23.83923-1.71066,7.58448-.561,20.31519-.561,20.31519-.74161,10.487,2.2807,15.66711,6.58413,17.94653-1.2951-8.45007-4.05218-29.127-2.15805-41.4331C460.641,608.4013,458.22031,603.46624,458.219,603.46362Z" transform="translate(-1.56171)"/>
          <path class="cls-16" d="M440.11334,666.108s12.08017-24.341,13.67829-18.48993c0,0,15.15036,20.12866,28.07824,15.87823,0,0-8.809,15.744-14.81683,27.98072C467.053,691.47705,447.22794,687.99389,440.11334,666.108Z" transform="translate(-1.56171)"/>
        </g>
        <g>
          <path class="cls-15" d="M212.56543,420.78671s10.61328,40.109,2.17564,61.1622c-8.43866,21.05447,36.91126,40.876,47.37163,34.72034s20.36591-24.53919,16.97592-33.60459c-3.38974-9.06668-9.02994-33.70187-9.81448-55.78878C269.27412,427.27588,224.08464,409.8298,212.56543,420.78671Z" transform="translate(-1.56171)"/>
          <path class="cls-6" d="M246.18013,466.345c.00029,0,4.86342.02051,28.4546.60287h0a228.91144,228.91144,0,0,1-5.36061-39.672s-45.18957-17.44608-56.70858-6.48917c0,0,6.69241,25.32144,5.21043,46.28738C229.42834,466.43353,239.11459,466.31521,246.18013,466.345Z" transform="translate(-1.56171)"/>
          <path class="cls-17" d="M185.57759,496.25521l4.61186-6.28811,14.49312-.51572s26.77048,18.323,53.536,14.42768c20.95718-3.05,27.08-17.29316,27.08-17.29316l11.73007-.21969,13.41047,7.85748,9.653,109.52411-56.9928,72.79266-83.364-78.69055Z" transform="translate(-1.56171)"/>
          <path class="cls-10" d="M254.79834,505.62283l3.42027-1.74377,4.66854,1.122s.62283,18.41022,3.434,45.61155c2.81014,27.2,11.09587,77.72747,8.31368,97.00555l-8.31368,1.44049s-1.62346-47.44482-6.20738-78.046C255.53116,540.41253,254.79834,505.62283,254.79834,505.62283Z" transform="translate(-1.56171)"/>
          <path class="cls-16" d="M309.77982,489.04855a89.66387,89.66387,0,0,0-12.75116-2.68231s4.7723,71.08047-27.15577,139.57974l-6.493,23.11267C312.45822,591.29266,311.63821,514.60461,309.77982,489.04855Z" transform="translate(-1.56171)"/>
          <path class="cls-11" d="M354.20856,509.993s-21.00663-14.37692-44.42874-20.94449c1.85839,25.55612,2.6784,102.24414-46.4,160.01013l-5.28516,18.81311-.5294,111.61279s-4.46127,37.24714,20.56438,44.57026c34.05456,9.96637,62.34112-11.4535,62.34112-11.4535s-9.461-35.04742-11.93087-67.62109c-2.46781-32.57367-5.93595-64.877,9.27883-84.70569,16.38984-21.35907,16.38984-41.66052,10.54886-81.34881C342.60992,539.81115,354.20856,509.993,354.20856,509.993Z" transform="translate(-1.56171)"/>
          <path class="cls-11" d="M266.804,679.13061c2.25276-15.46112,5.08669-27.98846,4.83028-37.36359-61.84455-45.15148-87.36289-124.56707-94.02777-149.2113A200.39753,200.39753,0,0,0,124.787,514.14355L145.5444,638.56414c18.366,25.88477,34.05068,70.2038,27.88,107.16785-5.33821,31.9762-21.23406,70.84058-21.23406,70.84058s34.32729,18.995,96.10871,13.01739c13.71762-1.3277,25.80272-7.22693,26.67939-12.61944C277.22012,803.16955,260.12387,724.95794,266.804,679.13061Z" transform="translate(-1.56171)"/>
          <path class="cls-16" d="M271.63428,641.767a80.14919,80.14919,0,0,0-1.76139-15.821c-26.67059-22.86761-69.1576-88.72137-79.68344-135.97888,0,0-4.79507.65182-12.58294,2.58862C184.27139,517.2,209.78973,596.61554,271.63428,641.767Z" transform="translate(-1.56171)"/>
          <path class="cls-10" d="M216.424,476.458s-.1806-5.10974-12.07863,3.47953c-7.28537,5.25851-14.156,10.02951-14.156,10.02951s25.32867,39.58578,52.17367,51.21988l15.85549-37.308,19.3829,31.78653s15.274-13.92358,19.42715-49.29937c0,0-16.31143-13.77582-20.54522-11.81366,0,0-8.10642,29.20282-18.2648,29.3265C240.36449,504.09768,216.424,476.458,216.424,476.458Z" transform="translate(-1.56171)"/>
          <path class="cls-18" d="M266.804,679.13061c-6.68013,45.82733,10.41612,124.03894,8.17448,137.83991a7.80424,7.80424,0,0,1-2.92114,4.30963,24.59521,24.59521,0,0,0,3.19025,1.6452c8.41873-5.06549.17078-42.80139-3.61331-76.21295-3.22208-28.45575-5.7869-48.08136-1.73862-67.83069,7.53275-36.74823,4.67606-44.28748,2.17825-51.42712-.79852-2.28327-2.201-1.50855-2.201-1.50855a80.14843,80.14843,0,0,1,1.76137,15.82105C271.89072,651.14215,269.05676,663.66949,266.804,679.13061Z" transform="translate(-1.56171)"/>
          <path class="cls-10" d="M268.10142,800.85986a3.10369,3.10369,0,1,1-3.10435-3.103h.00136A3.1037,3.1037,0,0,1,268.10142,800.85986Z" transform="translate(-1.56171)"/>
          <path class="cls-10" d="M266.32117,652.16168a3.1037,3.1037,0,1,1-3.10436-3.103h.00136A3.10371,3.10371,0,0,1,266.32117,652.16168Z" transform="translate(-1.56171)"/>
          <path class="cls-10" d="M263.21812,755.95111a3.1037,3.1037,0,1,1-3.10434-3.10327A3.10369,3.10369,0,0,1,263.21812,755.95111Z" transform="translate(-1.56171)"/>
          <circle class="cls-10" cx="255.44904" cy="704.00958" r="3.10303"/>
        </g>
        <path class="cls-11" d="M124.787,514.14355s29.45666,60.116,28.7047,84.63892c-.75039,24.52264-35.256,104.68268-34.54206,125.75116.71521,21.06817-35.0663,51.6546-47.07818,39.1524-12.01187-12.50067,11.92467-136.085,20.295-169.52783C111.274,517.80883,124.787,514.14355,124.787,514.14355Z" transform="translate(-1.56171)"/>
        <g>
          <g>
            <path class="cls-15" d="M222.21457,726.98584s14.74982-12.57288,28.92854-26.88538c14.17873-14.31274,5.75636-9.73145,21.94771-17.791,16.19034-8.06115,35.994-29.78009,37.265-27.77368,4.51072,7.11847-25.584,34.46-25.584,34.46s7.25354,4.28949,5.99,7.0564c-1.262,2.76587,5.99286,4.92371,5.20444,9.0351-.78974,4.1101,2.60647.8125,4.23123,8.23913,1.625,7.42664-8.85681,14.62714-11.68582,16.12952-7.59717,4.03558-5.10068-2.038-5.10068-2.038s-14.58679,16.40381-25.685,18.1587c-11.09846,1.75622-25.22671,6.22-25.22671,6.22Z" transform="translate(-1.56171)"/>
            <path class="cls-19" d="M294.50421,717.00445l-4.20718,1.46564c-.63941-.2818-.00519-2.19092-.00519-2.19092L288.384,719.8208c-6.39187,6.19214-20.32037,16.36938-26.49,18.81671a113.67416,113.67416,0,0,1-31.84838,7.24115l2.45357,5.91809s14.12827-4.46387,25.22672-6.22c11.09819-1.75489,25.685-18.15869,25.685-18.15869s2.37283-2.436,3.61746-3.88758h.00128l1.98728-1.94586h0l3.19284-.75427-1.74869-.65955Z" transform="translate(-1.56171)"/>
            <path class="cls-6" d="M295.96622,705.08728c.78845-4.11145-6.4664-6.26923-5.20313-9.0351,1.26224-2.76691-5.9913-7.0564-5.9913-7.0564s15.03909-13.68347,22.24969-24.21344c-21.39813,23.8949-36.105,24.21344-36.105,24.21344h11.51792s5.69452,3.52869,6.33261,5.05774c.63785,1.53-9.86417,4.336-9.86417,4.336s8.71167-.686,12.28616,1.2749c3.57554,1.9596,3.65525,4.97309,2.76328,5.865-.89349.892-8.62833,2.16815-8.62833,2.16815s11.38773.04553,12.2406,1.78418c.85263,1.73834,3.995,9.05267-3.61227,13.77038-7.60623,4.71668-8.7572,7.179-10.92276,6.205h0a1.66126,1.66126,0,0,0,.27533.86786c.00516.00775.014.01269.02017.0202a1.10721,1.10721,0,0,0,.29447.26679,1.18037,1.18037,0,0,0,.12756.05926,1.44942,1.44942,0,0,0,.33743.11517c.067.01374.14285.02021.21866.02771a2.74986,2.74986,0,0,0,.42307.00391c.096-.00647.19717-.01654.30328-.03155a5.61368,5.61368,0,0,0,.5535-.11774c.12237-.03028.24011-.058.37262-.09961.23132-.07221.494-.1731.762-.28052.13119-.05176.25-.09241.3902-.153.42721-.18579.8883-.40546,1.40378-.67975,2.829-1.50238,13.31085-8.70288,11.68582-16.12952C298.57269,705.89978,295.17645,709.19744,295.96622,705.08728Z" transform="translate(-1.56171)"/>
          </g>
          <path class="cls-11" d="M68.57485,744.85528c2.15935-15.91217,20.09448-23.12042,43.8072-26.00482,23.713-2.88464,79.56363,11.93347,100.31743,2.35l10.67512,38.40588S156.99167,781.2749,127.56528,782.273C95.6134,783.35583,63.765,780.29443,68.57485,744.85528Z" transform="translate(-1.56171)"/>
          <path class="cls-16" d="M198.54611,725.02887s2.25638,25.21118,11.56189,38.13024l26.90064-7.46209a3.89116,3.89116,0,0,0,2.73376-4.77582q-.04405-.162-.10193-.3197c-2.55861-6.95545-7.58476-21.5094-8.41485-30.57868a3.41812,3.41812,0,0,0-4.33112-3.01971Z" transform="translate(-1.56171)"/>
        </g>
        <g>
          <path class="cls-6" d="M316.50394,251.40171s10.20391,1.79787,13.94375-7.86137c0,0-9.38391,4.02785-31.67914-10.636-22.29654-14.6639-82.50494-62.19568-123.8723-.84511,0,0-25.33772-4.54355-47.0404,16.64108-17.34491,16.93323-35.44926,53.181-23.83408,78.42768a73.09385,73.09385,0,0,1,3.03215-17.57883s-.69735,23.425,5.70228,35.27512c10.38687,21.46774,39.71208,41.13241,39.71208,41.13241l19.02917-.67615s5.06522-106.33023,28.92725-124.18927c23.86071-17.85931,68.27318,6.41854,81.35139,29.76874,13.07822,23.3515,24.50116,76.70044,24.50116,76.70044l18.448-16.98627a71.13225,71.13225,0,0,1,5.70978-30.8237C337.35376,303.85485,351.01315,266.50526,316.50394,251.40171Z" transform="translate(-1.56171)"/>
          <path class="cls-15" d="M309.48535,342.95031s8.74814-8.34887,18.17139,1.99762c6.057,6.65091,2.44089,32.31336-12.45178,44.0701Z" transform="translate(-1.56171)"/>
          <path class="cls-15" d="M160.05046,374.02679s-18.50984-15.207-25.07249-2.11121c-6.56241,13.09583,6.2656,34.98945,21.9327,39.38111,11.55465,3.23837,18.51244-.66709,18.51244-.66709Z" transform="translate(-1.56171)"/>
          <path class="cls-10" d="M324.53714,387.57882a5.59073,5.59073,0,1,1,0-.00006Z" transform="translate(-1.56171)"/>
          <path class="cls-10" d="M176.55258,415.29815a5.59076,5.59076,0,1,1-5.59207-5.58944h.00131A5.59053,5.59053,0,0,1,176.55258,415.29815Z" transform="translate(-1.56171)"/>
          <path class="cls-15" d="M148.88136,361.58926s21.00894,55.04953,39.18524,68.69235c18.17786,13.6431,64.48287,33.77149,80.67293,29.79407,16.189-3.97739,45.26892-40.55872,48.81809-62.29556,5.58841-34.22119-7.4924-38.51947-7.48722-76.62464.00363-21.09121-17.84665-100.07213-98.2352-83.60545C131.448,254.017,141.36493,343.65414,148.88136,361.58926Z" transform="translate(-1.56171)"/>
          <path class="cls-6" d="M175.4231,280.804a96.69293,96.69293,0,0,0-18.48888,29.32328c-10.32375,25.79669-6.50427,49.10766-4.27463,58.9472q-4.44029-1.23363-8.88032-2.46722c-1.08976-1.20765-2.63958-3.00132-4.3558-5.279-12.41453-16.47451-17.18084-35.64288-16.724-47.12078,1.43792-36.115,29.23183-58.19681,46.515-69.69815,17.28288-11.50264,52.13826-26.34972,79.58719-19.84166C276.252,231.177,310.99,273.285,315.69022,289.21109c4.699,15.92743-5.54035,36.70272-5.54035,36.70272,1.21817-7.73651-.57458-12.19534-2.26617-14.766-11.26651-17.12249-49.72512,1.35752-94.252-11.37A120.42626,120.42626,0,0,1,175.4231,280.804Z" transform="translate(-1.56171)"/>
          <path class="cls-6" d="M224.1788,331.453s17.44737-7.91208,29.319-8.19129c11.87293-.28048,12.83188-7.5162,1.82193-8.65084C244.311,313.47622,230.83357,319.65072,224.1788,331.453Z" transform="translate(-1.56171)"/>
          <path class="cls-6" d="M283.80283,313.90734c-9.74125,3.40009-1.08652,9.75263,8.12658,8.48291,9.21338-1.271,15.83142,4.86054,15.83142,4.86054S303.20486,307.13507,283.80283,313.90734Z" transform="translate(-1.56171)"/>
        </g>
      </g>
      <ellipse class="cls-6" cx="284.20795" cy="345.66504" rx="4.57397" ry="9.3685"/>
      <ellipse class="cls-6" cx="238.47532" cy="347.5278" rx="4.57397" ry="9.3685"/>
      <path class="cls-6" d="M282.36923,414.76083a94.05185,94.05185,0,0,1-14.80827,1.6319,95.28456,95.28456,0,0,1-30.24079-4.00681c-1.67172,18.80066,12.87905,32.17493,24.6789,31.16944C272.32269,442.67569,283.0043,430.579,282.36923,414.76083Z" transform="translate(-1.56171)"/>
      <path class="cls-6" d="M274.25873,386.1766c-1.50894-2.10669-3.01383-3.90716-4.69005-4.75522a8.27739,8.27739,0,0,0-5.32089-.59066,19.28162,19.28162,0,0,0-5.80881,2.1304,57.24545,57.24545,0,0,0-5.98215,3.87616,13.18888,13.18888,0,0,1,3.71453-6.84381,13.61405,13.61405,0,0,1,7.27714-3.84333,9.55951,9.55951,0,0,1,8.45155,2.36985A9.02218,9.02218,0,0,1,274.25873,386.1766Z" transform="translate(-1.56171)"/>
      <path class="cls-11" d="M241.9669,431.87555a26.93714,26.93714,0,0,1,30.54244,6.90258A17.51309,17.51309,0,0,1,262.36679,444.48C254.643,445.61666,246.306,440.63107,241.9669,431.87555Z" transform="translate(-1.56171)"/>
      <path class="cls-6" d="M240.23468,343.01324a19.61379,19.61379,0,0,1-13.874-.55057,23.54263,23.54263,0,0,0,12.99308,4.955" transform="translate(-1.56171)"/>
      <path class="cls-6" d="M286.70114,340.53573a19.6139,19.6139,0,0,0,13.87405-.55057,23.54226,23.54226,0,0,1-12.9931,4.955" transform="translate(-1.56171)"/>
      <path class="cls-6" d="M941.29236,366.43267a295.451,295.451,0,0,1,10.57043,67.38752c1.01581,27.15454-2.47143,39.25836,3.30347,62.76294,5.3858,21.92166,12.14349,26.55243,18.49847,44.2644,11.2071,31.235,9.01715,69.3031-1.982,91.17145-31.78589,63.19574-177.53858,71.4295-212.73346,19.81982-26.67316-39.114,26.44873-88.70965,7.26727-186.30682-7.2699-36.99088-22.0086-66.03079-34.35443-85.886" transform="translate(-1.56171)"/>
      <path class="cls-20" d="M737.28558,560.99774s29.45667,60.11731,28.70624,84.64c-.75067,24.52289-41.87921,139.202-41.164,160.27173.71265,21.06848-35.58954,12.50092-47.60266,0-12.01056-12.502,19.0708-131.45318,27.44012-164.896C723.77393,564.663,737.28558,560.99774,737.28558,560.99774Z" transform="translate(-1.56171)"/>
      <g>
        <path class="cls-21" d="M708.29021,1034.95312H723.954a32.25216,32.25216,0,0,0-5.7038-3.89892c-16.59967-9.20819-16.59967-19.44238-16.59967-19.44238,5.86267,16.37457,27.14466,22.51519,26.25763,17.39795-.88452-5.11695-14.11822-10.23395-17.11749-25.58509-3.00214-15.35144,0-23.53857,6.168-12.281,6.166,11.25732,5.99158,22.13092,12.55914,19.44476,5.0008-2.04681-2.50683-10.83295-4.37664-29.679C723.635,965.72,710.7907,943.04572,710.7907,943.04572l-21.004-.00007s-1.00061,25.58277,0,51.13526C690.66881,1016.76257,695.46538,1027.43134,708.29021,1034.95312Z" transform="translate(-1.56171)"/>
        <path class="cls-20" d="M674.501,788.9674S670.832,857.76379,687.83331,948.835c0,0,15.91217,4.48767,28.73139-4.53345,0,0,17.4386-110.06488,8.77118-144.59943C716.66583,765.16748,674.501,788.9674,674.501,788.9674Z" transform="translate(-1.56171)"/>
        <path class="cls-20" d="M684.7807,931.41168s-.77838,19.30578,2.44861,23.13415c5.908,7.01239,31.84967-.437,33.02472-6.50445,1.17242-6.0697-1.28888-20.12189-1.28888-20.12189S697.77692,935.81109,684.7807,931.41168Z" transform="translate(-1.56171)"/>
      </g>
      <g>
        <path class="cls-6" d="M734.62658,1034.95312h71.28821c9.47882-12.72686,18.782-25.585,28.32269-38.26623,15.99695-21.26276,32.13122-42.66156,50.12451-62.31268,16.47992-17.99829,33.88519-35.35761,51.911-51.8039.73-.66607,1.4743-1.31878,2.20795-1.9815-7.50891-19.52149-13.71833-33.49067-13.71833-33.49067-38.76092,9.52027-161.16626,4.75946-161.16626,4.75946s-34.16943,69.26111-30.84643,148.24592Q733.52309,1018.48263,734.62658,1034.95312Z" transform="translate(-1.56171)"/>
        <path class="cls-7" d="M734.62652,1034.95312h9.80493c-3.67768-89.46765,16.68341-135.49273,16.68341-135.49273l15.23-47.192c-7.9397-.22381-12.74854-.41064-12.74854-.41064s-34.16943,69.26111-30.84643,148.24591Q733.523,1018.48275,734.62652,1034.95312Z" transform="translate(-1.56171)"/>
        <path class="cls-7" d="M842.31328,926.6604c-51.68878,0-82.6488-38.507-36.56738-21.07983,44.96954,17.00384,98.37994-2.94464,118.72913-12.01862q5.8536-5.55551,11.798-10.99164c.72961-.66571,1.47345-1.318,2.20673-1.98041-7.50733-19.51641-13.71711-33.49182-13.71711-33.49182-38.76086,9.52033-161.16626,4.75965-161.16626,4.75965s-9.59741,19.46362-18.12585,49.51544C758.9746,958.62109,907.20525,926.66046,842.31328,926.6604Z" transform="translate(-1.56171)"/>
        <path class="cls-7" d="M929.47039,888.84845q3.386-3.16012,6.80261-6.27814c.73-.66607,1.4743-1.31878,2.20795-1.9815-7.50891-19.52149-13.71833-33.49067-13.71833-33.49067-1.92547.47248-4.11145.901-6.42608,1.30646,0,0,3.53259,19.38031,8.52844,33.34674C927.60515,883.82013,928.49132,886.19861,929.47039,888.84845Z" transform="translate(-1.56171)"/>
      </g>
      <g>
        <path class="cls-21" d="M878.64337,471.78454s-10.61072,40.11-2.17334,61.16352c8.43762,21.05316-36.911,40.87573-47.37268,34.72009s-20.36462-24.54047-16.9762-33.6059c3.3913-9.06537,9.02887-33.70056,9.81476-55.78726C821.936,478.27505,867.12549,460.829,878.64337,471.78454Z" transform="translate(-1.56171)"/>
        <path class="cls-14" d="M905.63348,547.25311,901.022,540.966q-11.8841-2.61576-23.76849-5.23138c-1.996,2.20916-22.50879,24.31665-44.262,19.14367-5.87091-1.39612-20.57092-6.85742-21.53436-16.01391a9.7093,9.7093,0,0,1,.29865-3.53254q-8.78668,1.016-17.57337,2.032l-13.413,7.85882-9.65277,109.52307,56.99517,72.79236,83.364-78.69024Z" transform="translate(-1.56171)"/>
        <path class="cls-20" d="M781.43158,540.04742a89.64738,89.64738,0,0,1,12.75091-2.68359s-4.77331,71.08044,27.15473,139.58105l6.49408,23.11139C778.75293,642.29028,779.57159,565.60376,781.43158,540.04742Z" transform="translate(-1.56171)"/>
        <path class="cls-20" d="M737.00024,560.99084s21.00891-14.3772,44.43134-20.94348c-1.86,25.5564-2.67865,102.24286,46.39972,160.00885l5.28387,18.81439.5307,111.61279s4.46,37.24714-20.56439,44.57026c-34.0556,9.96508-62.34216-11.45453-62.34216-11.45453s9.46075-35.04639,11.92956-67.62006c2.46881-32.57342,5.9383-64.87671-9.27887-84.70569-16.38983-21.36035-16.38983-41.66052-10.54754-81.34881C748.6015,590.81005,737.00024,560.99084,737.00024,560.99084Z" transform="translate(-1.56171)"/>
        <path class="cls-20" d="M824.40741,730.12823c-2.25409-15.46112-5.08667-27.98718-4.8316-37.362,61.8446-45.15167,87.36425-124.56732,94.02777-149.21136a200.45082,200.45082,0,0,1,52.8208,21.58648l-20.759,124.42194c-18.36572,25.88477-34.05065,70.20349-27.87976,107.1665,5.33692,31.976,21.23407,70.84162,21.23407,70.84162s-34.32623,18.994-96.10742,13.01635c-13.71893-1.32666-25.80273-7.22583-26.67969-12.6184C813.99127,854.16845,831.08606,775.95581,824.40741,730.12823Z" transform="translate(-1.56171)"/>
        <path class="cls-20" d="M819.57581,692.76617a80.13181,80.13181,0,0,1,1.76141-15.82135c26.66931-22.86761,69.15735-88.72241,79.68469-135.97888,0,0,4.79352.65076,12.58167,2.58887C906.94006,568.19891,881.42041,647.61456,819.57581,692.76617Z" transform="translate(-1.56171)"/>
        <path class="cls-18" d="M824.40741,730.12823c6.67859,45.82758-10.41614,124.03919-8.17474,137.84119a7.8055,7.8055,0,0,0,2.91857,4.30859,24.42036,24.42036,0,0,1-3.189,1.64624c-8.41718-5.06525-.16925-42.80139,3.61352-76.21271,3.22187-28.456,5.78669-48.08166,1.73865-67.83221-7.533-36.7467-4.675-44.28589-2.17822-51.42584.79852-2.283,2.201-1.50855,2.201-1.50855a80.13257,80.13257,0,0,0-1.76142,15.82135C819.32068,702.141,822.15332,714.66711,824.40741,730.12823Z" transform="translate(-1.56171)"/>
        <path class="cls-10" d="M823.1084,851.85772a3.10318,3.10318,0,1,0,3.10333-3.103A3.10316,3.10316,0,0,0,823.1084,851.85772Z" transform="translate(-1.56171)"/>
        <path class="cls-10" d="M824.89,703.15954a3.10318,3.10318,0,1,0,3.103-3.10333A3.10316,3.10316,0,0,0,824.89,703.15954Z" transform="translate(-1.56171)"/>
        <path class="cls-10" d="M827.993,806.94873a3.10318,3.10318,0,1,0,3.10333-3.103h-.00006A3.104,3.104,0,0,0,827.993,806.94873Z" transform="translate(-1.56171)"/>
        <path class="cls-10" d="M831.09631,755.00848a3.103,3.103,0,1,0,3.103-3.103A3.103,3.103,0,0,0,831.09631,755.00848Z" transform="translate(-1.56171)"/>
      </g>
      <g>
        <path class="cls-6" d="M720.11108,319.85644a111.82942,111.82942,0,0,1,19.53717-22.18613c31.49427-27.91265,54.4972-48.36862,82.56336-44.95391,12.5708,1.52942,25.73907,7.76625,39.01318,21.20187,0,0,12.06464-4.58957,28.07221-1.3017a61.20065,61.20065,0,0,1,21.2337,8.95316c23.90485,15.97107,29.573,45.02688,31.70355,55.94931,1.76959,9.073,4.06647,20.84607.92188,35.72092-5.68933,26.91436-24.68933,42.6846-31.4148,47.77063l-18.82574,2.85534s-24.65308-103.55685-51.4057-116.6932c-26.7555-13.13617-65.90778,18.94091-74.43878,44.309-8.53388,25.36657-9.888,79.90826-9.888,79.90826l-21.272-13.279A71.11556,71.11556,0,0,0,724.598,388.87652c-19.11883-28.14505-16.73151-41.07782-13.22919-52.92984C712.92523,330.67889,715.44305,326.887,720.11108,319.85644Z" transform="translate(-1.56171)"/>
        <path class="cls-21" d="M749.5061,407.797s-10.14312-6.58645-17.489,5.3245c-4.7229,7.65771,3.58069,32.207,20.39,41.00586Z" transform="translate(-1.56171)"/>
        <path class="cls-21" d="M902.08313,410.68914s15.37653-18.36959,24.2486-6.71533c8.87237,11.65555.316,35.54657-14.267,42.75977-10.75739,5.32062-18.31781,2.77078-18.31781,2.77078Z" transform="translate(-1.56171)"/>
        <path class="cls-10" d="M744.36377,455.48553a6.11969,6.11969,0,1,0,4.882-7.14615A6.11971,6.11971,0,0,0,744.36377,455.48553Z" transform="translate(-1.56171)"/>
        <path class="cls-10" d="M891.4649,453.87713a6.11992,6.11992,0,1,0,4.88251-7.14621l-.00024.00006A6.12016,6.12016,0,0,0,891.4649,453.87713Z" transform="translate(-1.56171)"/>
        <path class="cls-21" d="M910.7583,396.3981s-10.46167,57.987-25.80011,74.75845c-15.3385,16.77124-57.11908,45.11859-73.76666,44.20517-16.645-.91342-51.992-31.482-59.502-52.18661-11.82373-32.59644.23755-39.24088-6.82037-76.68647-3.90674-20.72741-.97784-101.64642,81.06958-100.33892C907.98614,287.45883,914.82678,377.38266,910.7583,396.3981Z" transform="translate(-1.56171)"/>
        <path class="cls-6" d="M869.72571,321.91891s16.17737-7.50647,28.188,22.32416c12.00805,29.83063,8.301,73.13241,8.301,73.13241s29.60065-37.1586,21.50433-72.38427c-8.096-35.2258-39.49353-51.78348-58.60736-59.88883-19.11145-8.10519-56.11358-16.247-81.88574-4.77212-25.76983,11.47629-52.11828,59.28473-53.78876,75.80465-1.67028,16.52134,12.23566,35.0438,12.23566,35.0438a49.1721,49.1721,0,0,1-.50537-14.93009c3.64844-29.88842,35.29309-50.54718,58.903-57.9219C833.80188,309.03982,859.92731,317.96533,869.72571,321.91891Z" transform="translate(-1.56171)"/>
      </g>
      <path class="cls-20" d="M978.88213,810.0531c-.16962,5.01386,1.77277,8.33295,4.96954,10.33643,12.82239-25.447,24.41041-51.51819,38.264-76.43976-7.40332-37.71131-18.54992-80.72681-23.071-98.79267-19.10864-76.3504-32.6203-80.01574-32.6203-80.01574s-29.45667,60.11731-28.70624,84.64C938.4688,674.30426,979.59734,788.98334,978.88213,810.0531Z" transform="translate(-1.56171)"/>
      <path class="cls-22" d="M1001.06664,785.12415c-9.7276.10907-19.09448,4.38989-22.6925,18.72161-1.90332,7.5835-2.54718,18.81043-2.39386,31.713C984.84972,819.00372,992.88152,802.02478,1001.06664,785.12415Z" transform="translate(-1.56171)"/>
      <ellipse class="cls-6" cx="788.48936" cy="396.612" rx="4.57397" ry="9.3685"/>
      <ellipse class="cls-6" cx="834.22196" cy="398.47476" rx="4.57397" ry="9.3685"/>
      <path class="cls-6" d="M793.45148,465.70779a94.05224,94.05224,0,0,0,14.80828,1.6319,95.28453,95.28453,0,0,0,30.24079-4.00681c1.67169,18.80063-12.879,32.17493-24.6789,31.16944C803.49805,493.62265,792.81641,481.52594,793.45148,465.70779Z" transform="translate(-1.56171)"/>
      <path class="cls-6" d="M801.562,437.12353a9.80192,9.80192,0,0,1,2.946-6.92554,9.02891,9.02891,0,0,1,7.66449-1.93048,15.32957,15.32957,0,0,1,11.19117,9.51664,32.2212,32.2212,0,0,0-5.41077-4.62366,16.43076,16.43076,0,0,0-6.17987-2.55338,8.21839,8.21839,0,0,0-6.10858,1.03A13.17388,13.17388,0,0,0,801.562,437.12353Z" transform="translate(-1.56171)"/>
      <path class="cls-6" d="M823.689,371.72088c.49273,1.03272,7.77319-3.88867,17.17706-2.6427,6.939.91934,12.34967,4.841,16.18634,8.58863-.43146-.87433-6.91815-13.5607-18.16828-13.87391C830.29687,363.5538,823.17438,370.64221,823.689,371.72088Z" transform="translate(-1.56171)"/>
      <path class="cls-6" d="M804.4801,371.72088c-.49273,1.03272-7.77319-3.88867-17.17706-2.6427-6.939.91934-12.34967,4.841-16.1864,8.58863.43146-.87433,6.91815-13.5607,18.16827-13.87391C797.87231,363.5538,804.99481,370.64221,804.4801,371.72088Z" transform="translate(-1.56171)"/>
      <path class="cls-6" d="M900.33105,529.61627a342.1866,342.1866,0,0,1-8.58862,104.38464,337.10018,337.10018,0,0,1-13.21326,42.28241,140.91229,140.91229,0,0,0,31.71192-23.78381c44.89789-44.97058,44.91522-107.36981,44.26422-125.52588" transform="translate(-1.56171)"/>
      <path class="cls-11" d="M833.85382,482.82248a26.9371,26.9371,0,0,0-30.54242,6.90258,17.51289,17.51289,0,0,0,10.14252,5.70191C821.17767,496.56363,829.51471,491.578,833.85382,482.82248Z" transform="translate(-1.56171)"/>
      <path class="cls-6" d="M835.58606,393.9602a19.61387,19.61387,0,0,0,13.874-.55057,23.54246,23.54246,0,0,1-12.9931,4.955" transform="translate(-1.56171)"/>
      <path class="cls-6" d="M789.11957,391.48269a19.61384,19.61384,0,0,1-13.874-.55053,23.54256,23.54256,0,0,0,12.99311,4.955" transform="translate(-1.56171)"/>
    </g>
  </g>
</svg>
